<?xml version="1.0" encoding="UTF-8"?>
<svg xmlns="http://www.w3.org/2000/svg" xmlns:xlink="http://www.w3.org/1999/xlink" width="72px" height="72px" viewBox="0 0 72 72" version="1.1">
<g id="surface1">
<path style=" stroke:none;fill-rule:nonzero;fill:rgb(100%,100%,100%);fill-opacity:1;" d="M 53.296875 47.132812 C 53.296875 56.683594 45.554688 64.425781 36.007812 64.425781 C 26.457031 64.425781 18.71875 56.683594 18.71875 47.132812 C 18.71875 37.585938 26.457031 29.84375 36.007812 29.84375 C 45.554688 29.84375 53.296875 37.585938 53.296875 47.132812 Z M 53.296875 47.132812 "/>
<path style=" stroke:none;fill-rule:nonzero;fill:rgb(24.705882%,31.764706%,70.980392%);fill-opacity:1;" d="M 51.53125 47.160156 C 51.53125 55.746094 44.570312 62.703125 35.988281 62.703125 C 27.40625 62.703125 20.449219 55.746094 20.449219 47.160156 C 20.449219 38.578125 27.40625 31.621094 35.988281 31.621094 C 44.570312 31.621094 51.53125 38.578125 51.53125 47.160156 Z M 51.53125 47.160156 "/>
<path style=" stroke:none;fill-rule:nonzero;fill:rgb(100%,100%,100%);fill-opacity:1;" d="M 35.875 5.132812 L 36 24.34375 L 18.757812 32.832031 Z M 35.875 5.132812 "/>
<path style=" stroke:none;fill-rule:nonzero;fill:rgb(100%,100%,100%);fill-opacity:1;" d="M 53.25 32.785156 L 35.914062 24.480469 L 35.78125 5.285156 Z M 53.25 32.785156 "/>
<path style=" stroke:none;fill-rule:nonzero;fill:rgb(24.705882%,31.764706%,70.980392%);fill-opacity:1;" d="M 36.023438 7.703125 L 36.015625 23.148438 L 22.097656 29.863281 Z M 36.023438 7.703125 "/>
<path style=" stroke:none;fill-rule:nonzero;fill:rgb(24.705882%,31.764706%,70.980392%);fill-opacity:1;" d="M 49.925781 29.800781 L 36 23.152344 L 35.902344 7.691406 Z M 49.925781 29.800781 "/>
</g>
</svg>
